<?xml version="1.0" encoding="UTF-8"?>
<svg version="1.1" xmlns="http://www.w3.org/2000/svg" width="183" height="183">
<path d="M0 0 C5.42764279 4.7791193 8.13601017 9.54404068 9.875 16.5 C11.05801476 20.18049036 12.57810051 22.04831 15 25 C17.39047565 30.00861566 17.67795712 34.73529857 16 40 C13.47769484 43.95589416 10.5608034 47.0395056 6.5625 49.5 C0.09601301 50.76175356 -4.37029247 50.53493263 -10 47 C-10.41894531 46.51015625 -10.83789062 46.0203125 -11.26953125 45.515625 C-14.4513449 42.72884464 -18.75883028 42.22610369 -22.7734375 41.16015625 C-28.69733057 39.03013659 -31.93201163 35.39542782 -35 30 C-37.71886773 22.65905712 -38.00855421 16.060128 -34.96875 8.8828125 C-31.74905245 2.62517452 -27.37353827 -0.5291452 -21 -3 C-13.37923533 -5.17736134 -6.79650965 -3.91017142 0 0 Z " fill="#FEFEFE" transform="translate(56,23)"/>
<path d="M0 0 C5.14914098 5.43520436 8.00280848 11.38482115 8.375 18.8984375 C7.96107101 27.09940557 4.23863471 32.92611348 -1.75 38.375 C-5.04804619 40.48013586 -7.9806165 41.4489166 -11.75 42.25 C-16.16344834 43.23732974 -18.43237007 45.36598681 -21.75 48.375 C-27.14730471 50.17410157 -31.85048284 50.06968904 -37 47.75 C-41.75982924 45.12227502 -44.04616381 41.48650856 -45.75 36.375 C-46.1715521 30.89482276 -45.31720532 27.23435293 -42.75 22.375 C-42.069375 21.75625 -41.38875 21.1375 -40.6875 20.5 C-38.53091626 18.13471461 -38.32832292 17.07074119 -37.75 14 C-36.45302803 7.22692417 -32.85916321 2.91194104 -27.60546875 -1.3671875 C-18.96770391 -7.22268282 -8.40472353 -4.96642754 0 0 Z " fill="#FEFEFE" transform="translate(152.75,23.625)"/>
<path d="M0 0 C4.90624714 2.27790046 7.5167579 5.21745967 10 10 C11.47302432 16.08850052 11.064907 20.48067561 8 26 C7.319375 26.639375 6.63875 27.27875 5.9375 27.9375 C3.36849628 30.6722459 3.23412096 33.07471268 2.55078125 36.6875 C1.16907525 42.48870534 -1.9993876 46.74378728 -7 50 C-13.1433672 53.51049555 -19.00795227 53.81930786 -26 53 C-32.23069253 51.25249358 -36.5021903 47.35023228 -40 42 C-43.18969499 35.99374416 -44.03502368 30.13358513 -42.37890625 23.51953125 C-40.14171741 16.94716759 -36.77163791 12.83657326 -31 9 C-26.87540603 7.10268677 -23.51547803 6.78497724 -19 7 C-18.6596875 6.1028125 -18.6596875 6.1028125 -18.3125 5.1875 C-14.33560793 -1.44065345 -6.80733246 -0.82205236 0 0 Z " fill="#FEFEFE" transform="translate(62,108)"/>
<path d="M0 0 C5.25880086 3.47002659 8.02700643 7.55287399 10.25 13.375 C11.66438811 20.70410203 11.26174737 26.27396341 7.9375 32.9375 C7.40125 33.576875 6.865 34.21625 6.3125 34.875 C4.73019956 37.24845066 4.70098007 38.50345291 4.5 41.3125 C4.11404518 45.83262472 2.95375178 48.4321263 -0.0625 51.9375 C-5.43446739 55.99388354 -9.31086695 57.49091254 -16.0625 56.9375 C-20.35268019 55.53678818 -23.36589553 53.68909956 -26.4375 50.375 C-28.30434732 46.42589991 -28.84905905 42.8527481 -29.49609375 38.5625 C-30.28327881 34.91430443 -31.79485714 32.86349078 -34.0625 29.9375 C-36.1621038 23.6386886 -36.27310109 15.61504343 -33.5 9.5 C-26.63512375 -2.01449102 -12.08090846 -6.17243054 0 0 Z " fill="#FEFEFE" transform="translate(103.0625,2.0625)"/>
<path d="M0 0 C3.38281547 1.2413462 6.32925184 2.65850367 8 6 C9.85385908 6.50494339 9.85385908 6.50494339 12.0625 6.8125 C18.60373077 8.16442369 23.73010416 11.00412462 27.875 16.3125 C31.60192251 22.1421119 32.56237542 27.96176002 31.53125 34.76953125 C29.8294537 41.91457308 26.15199077 46.9839395 20 51 C14.07332706 53.87979299 7.2606756 54.00251191 0.875 52.5 C-5.84650464 49.85940889 -10.29344424 45.48320572 -13.2734375 39.05078125 C-14 37 -14 37 -14.4375 33.3125 C-15.15563492 29.08348326 -16.91109866 27.86288417 -20 25 C-22.21941468 20.98391629 -22.39170537 17.54378224 -22 13 C-20.17698367 7.12583628 -17.83361931 4.49666077 -13 1 C-9.0511 -0.97445 -4.30297892 -0.44391117 0 0 Z " fill="#FEFEFE" transform="translate(129,108)"/>
<path d="M0 0 C0.639375 0.53625 1.27875 1.0725 1.9375 1.625 C4.31095066 3.20730044 5.56595291 3.23651993 8.375 3.4375 C12.89512472 3.82345482 15.4946263 4.98374822 19 8 C22.60464151 12.28660071 24.24258915 16.38880754 24 22 C23.01772792 27.50072367 20.52855218 31.37792694 16.16015625 34.828125 C12.79212315 36.65526773 9.35224806 37.00328455 5.58984375 37.50390625 C1.92562834 38.2057997 -0.07844297 39.7357933 -3 42 C-9.2988114 44.0996038 -17.32245657 44.21060109 -23.4375 41.4375 C-29.04070526 38.09689983 -33.03944506 33.21290013 -35 27 C-35.30078125 23.66015625 -35.30078125 23.66015625 -35.3125 20.0625 C-35.32925781 18.87785156 -35.34601562 17.69320312 -35.36328125 16.47265625 C-34.75498457 10.65786327 -31.97751957 6.19849288 -28 2 C-19.21651218 -4.115606 -9.55871158 -4.86745451 0 0 Z " fill="#FEFEFE" transform="translate(35,70)"/>
<path d="M0 0 C4.71495068 3.65668519 8.77754946 8.00780942 10 14 C10.78451624 21.65883984 10.88954124 28.72365905 6 35 C1.63999624 39.61829782 -2.60109132 42.62572837 -9.05078125 43.3359375 C-16.2323941 43.42194484 -20.90092407 42.87056742 -27 39 C-27.495 38.505 -27.495 38.505 -28 38 C-29.72490129 37.70321119 -31.4552189 37.43764046 -33.1875 37.1875 C-39.05482859 36.15253672 -42.8773137 34.48866669 -46.8125 29.875 C-48.83844889 24.97007111 -49.83947979 19.90589157 -48.33984375 14.71484375 C-46.03146758 9.71491965 -42.97959254 6.48979627 -38 4 C-36.62630326 3.89740024 -35.25088692 3.81711644 -33.875 3.75 C-29.33161312 3.31102542 -26.49023566 1.8000861 -22.82421875 -0.84375 C-16.19951059 -5.04270849 -6.52465588 -3.76064687 0 0 Z " fill="#FEFEFE" transform="translate(170,70)"/>
<path d="M0 0 C4.38510919 2.28747038 6.98972136 4.8156848 8.9296875 9.31640625 C8.99855337 12.86299869 8.86064393 16.38097148 8.73828125 19.92578125 C8.93572641 23.42338123 9.36886416 24.70894968 11.4296875 27.44140625 C14.5687031 31.60887426 14.58632031 35.29891111 14.34765625 40.4140625 C13.51821284 46.17365553 11.33207278 50.32251627 6.9921875 54.19140625 C1.08587458 58.28966419 -3.9418662 59.297859 -11.0703125 58.31640625 C-17.71723641 56.24526329 -21.88422767 53.30447601 -25.23046875 47.18359375 C-27.32676214 42.52299729 -27.69596712 38.35372809 -27.0703125 33.31640625 C-26.140625 31.11328125 -26.140625 31.11328125 -25.0078125 28.94140625 C-22.68109516 24.31220821 -23.20857403 20.98260941 -23.8828125 15.9609375 C-24.17257079 11.87413833 -23.25173915 8.76446772 -21.0703125 5.31640625 C-15.50612221 -0.76326761 -7.86599443 -2.59726231 0 0 Z " fill="#FEFEFE" transform="translate(97.0703125,122.68359375)"/>
<path d="M0 0 C4.35285299 2.27064409 6.94661217 4.87431752 8.9296875 9.31640625 C9.76998738 15.01617622 10.05649372 20.44940016 6.7421875 25.37890625 C2.62588393 30.09144321 -1.53699192 31.94675253 -7.73046875 32.44140625 C-13.29789806 32.14398098 -17.01127362 29.28531416 -21.0078125 25.62890625 C-23.9824009 20.851537 -24.70327544 16.68015216 -23.66015625 11.13671875 C-22.02442446 5.94547415 -19.51637869 3.37307675 -15.0703125 0.31640625 C-10.21665609 -1.30147922 -4.91398121 -1.62254097 0 0 Z " fill="#3BB9EB" transform="translate(97.0703125,122.68359375)"/>
<path d="M0 0 C4.1796989 2.8497947 7.11864324 5.98092971 8.75 10.875 C9.26853818 15.8138636 9.30199525 19.72854834 7.125 24.25 C2.96946632 28.84295828 -1.22751765 31.5786782 -7.4375 32.1875 C-12.12076724 31.80362564 -15.42446454 30.59445673 -19.25 27.875 C-23.44114521 22.60920218 -24.70431666 18.57617072 -24.25 11.875 C-22.26781233 6.65871667 -19.21239828 2.63526565 -14.36328125 -0.24609375 C-9.65448724 -2.20446464 -4.71997524 -1.63383758 0 0 Z " fill="#3BB9EB" transform="translate(98.25,27.125)"/>
<path d="M0 0 C4.88351295 2.30856976 7.51973231 5.22318815 10 10 C11.45215332 16.00223371 11.27105214 20.64033686 8 26 C4.08134054 30.26061795 0.69726906 32.73556186 -5.1875 33.3125 C-10.67861781 32.86240838 -14.76371523 31.34431785 -18.6171875 27.3046875 C-21.82896211 22.82271955 -22.72445197 18.80813009 -22.421875 13.328125 C-21.37972897 7.57702283 -17.57707266 4.25213058 -13 1 C-9.04877519 -0.97561241 -4.30659535 -0.43248694 0 0 Z " fill="#3BB9EB" transform="translate(48,74)"/>
<path d="M0 0 C4.31657706 2.00846362 7.15375218 4.20063465 9.76953125 8.28125 C11.42979586 13.26204383 11.3685655 17.58398629 9.64453125 22.46875 C6.7640616 26.78945448 2.78961599 30.60788842 -2.23046875 32.28125 C-8.16642303 32.9661678 -12.40663258 31.63696212 -17.23046875 28.28125 C-21.02411067 24.19578947 -22.05087784 20.24549683 -22.39453125 14.8125 C-22.03613495 9.28295706 -19.58854678 5.54232246 -15.60546875 1.84375 C-10.66099468 -1.40919347 -5.69321849 -1.8345923 0 0 Z " fill="#3AB9EB" transform="translate(143.23046875,74.71875)"/>
<path d="M0 0 C4.90624714 2.27790046 7.5167579 5.21745967 10 10 C11.45684577 16.02162918 11.17713579 20.58088536 8 26 C5.3125 28.5 5.3125 28.5 3 30 C2.7525 28.989375 2.505 27.97875 2.25 26.9375 C0.3290616 20.33427423 -2.85386384 14.52498985 -9 11 C-12.28471221 9.77560877 -15.59522567 8.82764277 -19 8 C-18.40447728 4.88495807 -18.07290053 4.07093025 -15.6875 1.75 C-10.93224617 -1.15151081 -5.34249484 -0.719182 0 0 Z " fill="#3CB9EB" transform="translate(62,108)"/>
<path d="M0 0 C0.25523438 0.97839844 0.25523438 0.97839844 0.515625 1.9765625 C2.61053942 9.53162621 5.11551068 15.65977847 12 20 C15.29090492 21.17785076 18.61514451 22.13242539 22 23 C20.45457111 26.33125783 19.13189166 28.00697803 16 30 C10.60269529 31.79910157 5.89951716 31.69468904 0.75 29.375 C-4.00982924 26.74727502 -6.29616381 23.11150856 -8 18 C-8.4215521 12.51982276 -7.56720532 8.85935293 -5 4 C-1.51282051 0 -1.51282051 0 0 0 Z " fill="#3BB9EB" transform="translate(115,42)"/>
<path d="M0 0 C4.14059702 2.68579266 6.07719253 5.18739403 7.546875 9.79296875 C8.57452095 14.79831327 8.3388735 18.91293249 5.5390625 23.27734375 C2.53471876 26.90485923 -0.23188825 30.06963673 -5 31 C-10.63460206 31.44719064 -14.14906044 31.19721016 -19 28 C-21.375 25.3125 -21.375 25.3125 -23 23 C-22.35933594 22.84144531 -21.71867187 22.68289062 -21.05859375 22.51953125 C-13.81598531 20.56586191 -7.78411263 18.2750932 -3.6875 11.6875 C-1.76381001 7.93919418 -0.86497117 4.10861307 0 0 Z " fill="#3BB9EB" transform="translate(65,42)"/>
<path d="M0 0 C2.94549696 0.98866246 4.4940767 2.03884263 7 4 C7.6796875 6.140625 7.6796875 6.140625 8 8 C7.41992188 8.09796875 6.83984375 8.1959375 6.2421875 8.296875 C0.28365129 9.43745289 -4.44939248 10.8117406 -8.40625 15.7578125 C-11.49322271 20.33442902 -12.94019358 24.60462186 -14 30 C-18.22056749 28.25325253 -19.39306843 26.18894305 -21.23828125 22.1484375 C-22.88046883 17.51662639 -22.30385699 13.97909476 -20.875 9.375 C-16.05266674 0.69480013 -9.42787755 -0.94667821 0 0 Z " fill="#3BB9EB" transform="translate(129,108)"/>
</svg>
